<?xml version="1.0" encoding="UTF-8"?>
<svg version="1.1" xmlns="http://www.w3.org/2000/svg" width="500" height="500">
<path d="M0 0 C2.68737407 -0.07160715 5.30794374 0.02260912 7.9921875 0.18359375 C8.66491699 0.21936523 9.33764648 0.25513672 10.03076172 0.29199219 C32.61581538 1.60502098 55.18699589 6.20862692 75.9921875 15.18359375 C76.76820313 15.51198242 77.54421875 15.84037109 78.34375 16.17871094 C90.82268785 21.52900473 101.98736776 28.25780173 112.9921875 36.18359375 C113.61915527 36.63412109 114.24612305 37.08464844 114.89208984 37.54882812 C121.44925418 42.31055723 127.46855141 47.38420037 133.08203125 53.2421875 C135.08354995 55.35641892 135.08354995 55.35641892 137.9921875 57.55859375 C142.60809829 61.59751569 146.20391524 66.37775968 149.9921875 71.18359375 C150.78882813 72.15296875 151.58546875 73.12234375 152.40625 74.12109375 C183.1899113 112.42965003 196.1763771 162.72009466 191.22021484 211.24951172 C188.29346247 236.0924983 180.70909596 259.18196872 168.9921875 281.18359375 C168.68055664 281.77881836 168.36892578 282.37404297 168.04785156 282.98730469 C160.22996186 297.82061287 149.97561724 310.77557726 138.34130859 322.78759766 C137.12469413 324.0464832 135.92639952 325.3230113 134.73046875 326.6015625 C101.45212561 361.35620922 52.41111873 379.42385976 4.99194336 380.53515625 C-21.44666986 380.74172473 -47.84986902 376.12854675 -72.0078125 365.18359375 C-72.7498291 364.85488281 -73.4918457 364.52617187 -74.25634766 364.1875 C-94.67048267 355.10160824 -112.334281 343.08561948 -128.4765625 327.64746094 C-129.51349591 326.65615789 -130.55533019 325.66996042 -131.6015625 324.68847656 C-143.34346398 313.64516176 -153.12449383 301.26557669 -161.0078125 287.18359375 C-161.65363281 286.095625 -162.29945313 285.00765625 -162.96484375 283.88671875 C-167.30854137 276.54520089 -170.93461265 269.15004385 -174.0078125 261.18359375 C-174.71357422 259.55744141 -174.71357422 259.55744141 -175.43359375 257.8984375 C-192.33503335 217.06421004 -192.69518036 165.09148409 -176.0078125 124.18359375 C-174.72144472 121.16099423 -173.37491273 118.17033388 -172.0078125 115.18359375 C-171.4612929 113.9319691 -170.91687899 112.67942199 -170.375 111.42578125 C-167.38889111 104.68749366 -163.95078132 98.40362707 -160.0078125 92.18359375 C-159.4509375 91.27738281 -158.8940625 90.37117188 -158.3203125 89.4375 C-154.55393289 83.37598282 -150.49536437 77.72704018 -146.0078125 72.18359375 C-145.35296875 71.343125 -144.698125 70.50265625 -144.0234375 69.63671875 C-127.25470313 48.46160162 -104.69045971 30.3653299 -80.0078125 19.18359375 C-78.84765625 18.64992188 -77.6875 18.11625 -76.4921875 17.56640625 C-51.99840241 6.45678997 -26.7525047 1.63294509 0 0 Z " fill="#020202" transform="translate(248.0078125,59.81640625)"/>
<path d="M0 0 C1.00011108 0.00087616 2.00022217 0.00175232 3.03063965 0.00265503 C18.10276761 0.04623265 32.44980421 0.64949728 47.125 4.375 C48.68468506 4.76099365 48.68468506 4.76099365 50.27587891 5.15478516 C62.93195471 8.34543962 75.17722618 12.10803599 87.125 17.375 C87.92035156 17.69855469 88.71570313 18.02210937 89.53515625 18.35546875 C137.18317167 38.15836445 176.82570784 80.04291907 198.125 126.375 C198.65609375 127.52097656 199.1871875 128.66695312 199.734375 129.84765625 C211.78789781 156.90595101 216.35109792 183.59689841 216.47509766 213.01904297 C216.48826354 215.80780112 216.51579359 218.59579702 216.55712891 221.38427734 C216.88381635 243.96769408 214.92667102 265.5183229 207.25 286.9375 C206.90614258 287.92596924 206.56228516 288.91443848 206.20800781 289.93286133 C185.91342758 347.33285495 143.7955023 390.34888962 89.63671875 416.74169922 C73.51644734 424.23923924 56.57187723 429.12115832 39.125 432.375 C38.21994217 432.54521164 37.31488434 432.71542328 36.38240051 432.89079285 C33.1094715 433.37730829 30.00990452 433.52237291 26.70263672 433.55200195 C25.44627411 433.56483719 24.1899115 433.57767242 22.89547729 433.59089661 C21.53188481 433.59907518 20.16828773 433.60651675 18.8046875 433.61328125 C17.75816198 433.61939454 17.75816198 433.61939454 16.69049454 433.62563133 C12.9845841 433.64645091 9.27871003 433.66076022 5.57275391 433.67016602 C2.54910684 433.67895381 -0.47406981 433.69965957 -3.49755859 433.73168945 C-20.3142597 433.90593754 -36.52305804 433.85383104 -52.875 429.375 C-53.70960754 429.15551193 -54.54421509 428.93602386 -55.40411377 428.70988464 C-69.50553117 424.99331228 -82.69323838 419.58489102 -95.875 413.375 C-96.64972656 413.01035645 -97.42445313 412.64571289 -98.22265625 412.27001953 C-128.0097328 397.98261363 -155.82774998 374.33702964 -174.875 347.375 C-175.73158203 346.22837891 -175.73158203 346.22837891 -176.60546875 345.05859375 C-184.87471497 333.76449262 -192.96088194 321.25835405 -197.8125 308.078125 C-198.70829889 305.79910725 -199.70100942 303.71475479 -200.8203125 301.54296875 C-202.8173878 297.60147 -204.36684917 293.63023674 -205.75 289.4375 C-205.99975586 288.68170654 -206.24951172 287.92591309 -206.50683594 287.1472168 C-208.66651707 280.39922436 -210.44507312 273.568959 -212.125 266.6875 C-212.3710498 265.69177979 -212.61709961 264.69605957 -212.87060547 263.67016602 C-216.51778229 248.23447804 -217.28385543 233.22295995 -217.25 217.4375 C-217.24912384 216.43988647 -217.24824768 215.44227295 -217.24734497 214.41442871 C-217.20371836 199.3555491 -216.58028466 185.03957732 -212.875 170.375 C-212.62298828 169.34052734 -212.37097656 168.30605469 -212.11132812 167.24023438 C-209.02838641 154.79757034 -205.38759888 142.83708659 -199.79296875 131.29052734 C-198.80791137 129.23500602 -197.87028998 127.1617627 -196.9375 125.08203125 C-192.85501167 116.05605348 -188.30477776 107.67689958 -182.875 99.375 C-182.13746133 98.21910681 -181.40049165 97.06285039 -180.6640625 95.90625 C-176.58183821 89.59869767 -176.58183821 89.59869767 -174.875 87.375 C-174.215 87.375 -173.555 87.375 -172.875 87.375 C-172.64941406 86.66730469 -172.42382812 85.95960937 -172.19140625 85.23046875 C-170.60883123 81.79764281 -168.40019579 79.37657035 -165.8125 76.6875 C-164.81189158 75.62557296 -163.81190005 74.56306434 -162.8125 73.5 C-162.31492188 72.9740625 -161.81734375 72.448125 -161.3046875 71.90625 C-159.25573883 69.7117476 -157.28942307 67.44684065 -155.3125 65.1875 C-143.5929485 52.18190922 -129.32266543 41.99189992 -114.68310547 32.54345703 C-112.9815099 31.44383019 -111.28924623 30.32980115 -109.59765625 29.21484375 C-101.36963381 23.93629783 -92.91063181 20.01282933 -83.875 16.375 C-82.83641846 15.94405029 -82.83641846 15.94405029 -81.77685547 15.50439453 C-71.43426415 11.24232461 -60.92918638 8.20509159 -50.0625 5.5625 C-48.87116455 5.27246094 -47.6798291 4.98242188 -46.45239258 4.68359375 C-30.86945359 1.03246927 -15.94205329 -0.03404173 0 0 Z M-126.875 66.375 C-127.68839844 67.07882813 -128.50179687 67.78265625 -129.33984375 68.5078125 C-140.73555928 78.55332477 -150.92604178 89.10100072 -159.875 101.375 C-160.29491211 101.95056641 -160.71482422 102.52613281 -161.14746094 103.11914062 C-184.94488875 136.22375918 -197.43921594 175.63124739 -197.125 216.3125 C-197.12123352 217.05878662 -197.11746704 217.80507324 -197.11358643 218.57397461 C-197.0504019 229.27017211 -196.96290223 239.84254204 -194.875 250.375 C-194.68663574 251.33245117 -194.49827148 252.28990234 -194.30419922 253.27636719 C-190.11142207 273.96073444 -183.86408634 292.79871865 -173.875 311.375 C-173.56481934 311.96587402 -173.25463867 312.55674805 -172.93505859 313.16552734 C-150.72422304 355.32030725 -112.43884179 385.76548326 -68.875 403.375 C-68.21628906 403.64828125 -67.55757812 403.9215625 -66.87890625 404.203125 C-33.74378374 417.7276648 5.56734817 418.32965043 40.125 411.375 C41.75250235 411.07106884 43.38010057 410.76765048 45.0078125 410.46484375 C84.57321481 402.74817226 124.76700614 378.87870853 150.125 347.375 C150.94226563 346.38371094 151.75953125 345.39242188 152.6015625 344.37109375 C163.6637123 330.77564232 172.77082505 316.2770824 180.125 300.375 C180.43421387 299.7164502 180.74342773 299.05790039 181.06201172 298.37939453 C202.13475904 253.24868581 203.82664709 199.76643087 187.71337891 152.71704102 C186.30317818 148.88272413 184.74763155 145.12372939 183.125 141.375 C182.7748584 140.55016113 182.4247168 139.72532227 182.06396484 138.87548828 C174.14470265 120.47352334 163.46753072 103.35567062 150.125 88.375 C149.27679688 87.40691406 148.42859375 86.43882813 147.5546875 85.44140625 C115.32367752 49.12927235 67.7406687 23.71676082 18.85791016 20.50390625 C-34.32234445 17.99549331 -86.06167421 30.60601785 -126.875 66.375 Z " fill="#040404" transform="translate(249.875,32.625)"/>
<path d="M0 0 C1.70209074 0.00138269 1.70209074 0.00138269 3.43856716 0.00279331 C5.38429874 0.00073132 5.38429874 0.00073132 7.36933804 -0.00137234 C8.820266 0.00216728 10.27119373 0.0058021 11.72212124 0.00952244 C13.23949081 0.0098043 14.75686051 0.0096466 16.27423 0.00907993 C20.40628225 0.00879192 24.53830573 0.01468925 28.67035127 0.02165389 C32.98386602 0.02788681 37.29738136 0.02849118 41.61089993 0.0296793 C49.78487827 0.0327928 57.95884331 0.04100644 66.13281578 0.05102879 C75.43616679 0.06218935 84.73951842 0.06770023 94.04287446 0.07272422 C113.18588289 0.08318904 132.32887893 0.10078884 151.4718771 0.12304783 C151.4718771 0.78304783 151.4718771 1.44304783 151.4718771 2.12304783 C150.8118771 2.12304783 150.1518771 2.12304783 149.4718771 2.12304783 C149.24629116 2.78949314 149.02070522 3.45593845 148.78828335 4.14257908 C147.07853454 8.01361273 144.79696725 11.32878624 142.4093771 14.81054783 C139.22985093 19.34050621 139.22985093 19.34050621 136.4718771 24.12304783 C122.9418771 24.12304783 109.4118771 24.12304783 95.4718771 24.12304783 C97.4518771 27.09304783 99.4318771 30.06304783 101.4718771 33.12304783 C103.1515646 36.48632908 103.1515646 36.48632908 104.3468771 39.43554783 C104.75679897 40.42168064 105.16672085 41.40781345 105.5890646 42.42382908 C106.4718771 45.12304783 106.4718771 45.12304783 106.4718771 49.12304783 C120.9918771 49.12304783 135.5118771 49.12304783 150.4718771 49.12304783 C149.8118771 50.77304783 149.1518771 52.42304783 148.4718771 54.12304783 C148.19053921 54.85563816 147.90920132 55.58822849 147.61933804 56.34301853 C145.07363855 62.49285674 142.1561497 68.38868838 136.4718771 72.12304783 C126.75714345 74.42582959 116.29233158 73.21732704 106.4718771 72.12304783 C106.40057583 72.99534031 106.40057583 72.99534031 106.32783413 73.88525486 C104.81610568 89.94530219 95.54838743 103.79445346 83.4718771 114.12304783 C76.91456336 118.92862204 69.82249139 122.68688738 62.4718771 126.12304783 C61.8221896 126.44402439 61.1725021 126.76500095 60.5031271 127.09570408 C56.68492491 128.89595292 53.67710636 129.43074753 49.4718771 129.12304783 C49.4718771 129.78304783 49.4718771 130.44304783 49.4718771 131.12304783 C42.05757119 132.96022097 35.09502184 133.35881519 27.4718771 133.12304783 C27.99394741 133.75468845 28.51601772 134.38632908 29.05390835 135.03711033 C33.34077812 140.2474214 37.56848529 145.4936627 41.7218771 150.81054783 C45.74790574 155.96255405 49.83754564 161.05757711 53.9718771 166.12304783 C58.02166721 171.08540808 62.02963167 176.07481355 65.9718771 181.12304783 C73.82016683 191.16354943 81.90033454 201.01501576 90.01435757 210.84130955 C99.41211127 222.22228226 99.41211127 222.22228226 103.6906271 227.81054783 C105.17641081 229.73946001 106.67823725 231.65254647 108.1906271 233.56054783 C108.67958462 234.1784116 109.16854214 234.79627537 109.67231655 235.43286228 C110.63534124 236.64885684 111.59992372 237.86361998 112.56635952 239.07690525 C113.01342251 239.64256199 113.4604855 240.20821873 113.92109585 240.79101658 C114.3164352 241.2888364 114.71177456 241.78665623 115.11909389 242.2995615 C117.00450486 244.84100429 118.73042488 247.48164895 120.4718771 250.12304783 C114.90364617 250.32157235 109.33749542 250.46632589 103.76655483 250.56250095 C101.87393704 250.6026077 99.98156523 250.65711071 98.08979702 250.72656345 C82.42809538 251.28694004 82.42809538 251.28694004 77.82148647 248.54614353 C76.01507122 246.50013694 74.76044036 244.52240456 73.4718771 242.12304783 C72.56929952 240.95347032 71.64545829 239.79990963 70.6984396 238.66601658 C69.82926608 237.54906962 68.96210265 236.4305558 68.0968771 235.31054783 C64.77033692 231.03943451 61.41549057 226.80105199 57.9718771 222.62304783 C54.66300464 218.60429315 51.42640354 214.53734167 48.2218771 210.43554783 C44.19582226 205.2835624 40.10620884 200.18851889 35.9718771 195.12304783 C31.46424548 189.59967715 27.02345023 184.03120289 22.6359396 178.41211033 C19.13411442 173.93868047 15.56375846 169.52438211 11.9718771 165.12304783 C6.84571848 158.84150558 1.80268074 152.50068485 -3.18827915 146.11132908 C-5.39072228 143.14334541 -5.39072228 143.14334541 -7.82109165 140.96679783 C-10.59430398 136.34689262 -9.94548505 131.57923685 -9.7781229 126.31054783 C-9.76007603 125.23611423 -9.74202915 124.16168064 -9.7234354 123.05468845 C-9.67641682 120.40989318 -9.6107145 117.76693194 -9.5281229 115.12304783 C-7.99442051 115.10117405 -7.99442051 115.10117405 -6.42973423 115.07885838 C-2.57328892 115.02012614 1.2826172 114.94291128 5.13862514 114.86059666 C6.79576154 114.82769468 8.45300069 114.79955932 10.11030483 114.77661228 C28.1658699 114.52000159 47.615702 112.04977134 61.51484585 99.24023533 C69.18064173 90.90429524 70.83023471 83.57016483 73.4718771 72.12304783 C43.4418771 72.12304783 13.4118771 72.12304783 -17.5281229 72.12304783 C-16.8681229 70.47304783 -16.2081229 68.82304783 -15.5281229 67.12304783 C-15.28737034 66.39634892 -15.04661777 65.66965 -14.79856968 64.92092991 C-12.52230796 58.41026831 -9.47845199 52.86432444 -3.5281229 49.12304783 C7.79277006 46.17285692 20.0243231 47.34544264 31.59944057 47.88708591 C35.98244645 48.07254197 40.36731415 48.15369983 44.7531271 48.24414158 C53.33118484 48.43617158 61.90011939 48.74253887 70.4718771 49.12304783 C69.5494687 47.69683632 68.62122815 46.27439595 67.6906271 44.85351658 C67.17435757 44.06098484 66.65808804 43.2684531 66.12617397 42.45190525 C59.27858538 32.81212551 48.34337019 28.04897704 36.95429897 26.07006931 C30.881017 25.09211198 24.94301566 24.78080598 18.8000021 24.70898533 C17.75157131 24.68961918 16.70314053 24.67025303 15.62293911 24.65030003 C12.32266403 24.59122457 9.02235267 24.54441096 5.7218771 24.49804783 C3.46405062 24.45980156 1.2062377 24.42074613 -1.0515604 24.38086033 C-6.54362626 24.28558381 -12.03577594 24.20033298 -17.5281229 24.12304783 C-16.25511608 20.69274036 -14.78515164 17.76505568 -12.74296665 14.73242283 C-12.21251743 13.94093845 -11.68206821 13.14945408 -11.13554478 12.33398533 C-10.58447056 11.52187595 -10.03339634 10.70976658 -9.4656229 9.87304783 C-8.63321079 8.63168064 -8.63321079 8.63168064 -7.78398228 7.36523533 C-2.92328939 0.14228122 -2.92328939 0.14228122 0 0 Z " fill="#FAFAFA" transform="translate(183.5281229019165,124.87695217132568)"/>
</svg>
