<?xml version="1.0" encoding="UTF-8"?>
<svg version="1.1" xmlns="http://www.w3.org/2000/svg" width="500" height="500">
<path d="M0 0 C165 0 330 0 500 0 C500 165 500 330 500 500 C335 500 170 500 0 500 C0 335 0 170 0 0 Z " fill="#FEFEFE" transform="translate(0,0)"/>
<path d="M0 0 C165 0 330 0 500 0 C500 165 500 330 500 500 C335 500 170 500 0 500 C0 335 0 170 0 0 Z M89 105 C85.86122746 108.56654393 82.90191087 112.23880926 80 116 C79.57219238 116.55139648 79.14438477 117.10279297 78.70361328 117.67089844 C43.43650712 163.41526876 28.10240574 220.25830777 35.390625 277.5859375 C35.59309974 279.05738129 35.79619484 280.52873989 36 282 C36.08056641 282.66547852 36.16113281 283.33095703 36.24414062 284.01660156 C41.82153019 329.51993834 66.1469803 370.21276958 97 403 C97.61617187 403.65871094 98.23234375 404.31742187 98.8671875 404.99609375 C103.83804775 410.14533416 109.39882683 414.55969174 115 419 C115.51369141 419.41185547 116.02738281 419.82371094 116.55664062 420.24804688 C151.49569298 448.20790505 195.26094883 464.74179443 240 466 C240.9801709 466.03786621 241.9603418 466.07573242 242.97021484 466.11474609 C298.03117471 468.0880483 351.93916801 448.7233311 393 412 C393.81380127 411.27876953 393.81380127 411.27876953 394.64404297 410.54296875 C412.15223191 394.9710037 426.32928387 377.34253304 438 357 C438.65355469 355.86820312 439.30710937 354.73640625 439.98046875 353.5703125 C453.21819489 330.05188374 461.14574233 303.61572963 465 277 C465.103125 276.31268799 465.20625 275.62537598 465.3125 274.91723633 C470.35839365 236.58196038 463.11311587 195.84204333 447 161 C446.6582373 160.25830566 446.31647461 159.51661133 445.96435547 158.75244141 C439.15507082 144.17917514 430.99569552 130.61694435 421 118 C419.95585938 116.66582031 419.95585938 116.66582031 418.890625 115.3046875 C410.50666159 104.80943403 401.4677473 94.46522173 391 86 C389.94883453 85.11373676 388.89809415 84.22696922 387.84765625 83.33984375 C353.02538486 54.31969377 307.54904101 35.26169564 262 34 C261.00129883 33.96745117 260.00259766 33.93490234 258.97363281 33.90136719 C193.91479886 32.0360835 133.38532724 57.30130463 89 105 Z " fill="#010101" transform="translate(0,0)"/>
<path d="M0 0 C1.17224121 0.02537842 1.17224121 0.02537842 2.36816406 0.05126953 C49.69321372 1.14091561 98.40289858 23.64607095 132.62109375 55.7734375 C134.71780132 57.73587315 136.86327314 59.59242299 139.0625 61.4375 C176.84140556 94.44595312 200.01918078 148.50941406 203.80078125 197.64697266 C207.30708999 256.66124259 189.81635765 314.73743655 150.19140625 359.375 C124.31870178 387.70499955 93.28511243 408.46765384 57 421 C56.21641113 421.27827637 55.43282227 421.55655273 54.62548828 421.84326172 C29.82304686 430.53381901 4.11885835 433.00903037 -22 432 C-23.26336182 431.96447021 -23.26336182 431.96447021 -24.55224609 431.92822266 C-66.6237797 430.74197844 -108.77289054 414.61102866 -142 389 C-143.0003125 388.23042969 -144.000625 387.46085937 -145.03125 386.66796875 C-152.35761299 380.82582585 -159.19787016 374.43670643 -166 368 C-166.680625 367.36191406 -167.36125 366.72382813 -168.0625 366.06640625 C-198.3835497 336.79817077 -220.11881324 292.07789674 -225.625 250.5625 C-225.74617188 249.71107422 -225.86734375 248.85964844 -225.9921875 247.98242188 C-233.68738042 192.23409492 -221.73111032 135.22772562 -187.8046875 89.66015625 C-180.68506463 80.31113217 -173.04693872 71.55141042 -165 63 C-164.38382813 62.34128906 -163.76765625 61.68257812 -163.1328125 61.00390625 C-158.16100523 55.85368484 -152.5964743 51.44791683 -147 47 C-146.04480469 46.21625 -145.08960938 45.4325 -144.10546875 44.625 C-103.02937978 11.72194542 -51.9182475 -1.62613141 0 0 Z M-89 44 C-89.62213379 44.2789209 -90.24426758 44.5578418 -90.88525391 44.84521484 C-111.31468653 54.13504714 -128.75493065 67.67871407 -145 83 C-145.73347656 83.6909375 -146.46695313 84.381875 -147.22265625 85.09375 C-179.61796928 116.52300002 -199.05159677 163.22126192 -200.25390625 208.10546875 C-200.42100154 220.21382318 -200.2361483 232.07387572 -198 244 C-197.76699687 245.35395518 -197.53528561 246.70813314 -197.3046875 248.0625 C-188.51578732 298.08363379 -160.66571342 341.29066305 -119.375 370.59375 C-78.66585037 398.86790772 -28.15056435 410.35272683 20.74072266 401.69848633 C28.31883633 400.24144502 35.69489687 398.51555433 43 396 C43.69689941 395.76442383 44.39379883 395.52884766 45.11181641 395.28613281 C74.46941319 385.27629126 98.44049145 370.24170694 121 349 C122.06541016 348.01580078 122.06541016 348.01580078 123.15234375 347.01171875 C156.25122927 315.40194465 174.72957799 267.65573213 176.359375 222.53515625 C177.35408739 168.85596086 157.53380964 120.87283542 120.52978516 82.24658203 C113.8915993 75.47585336 106.65480449 69.58110881 99 64 C98.42443359 63.58008789 97.84886719 63.16017578 97.25585938 62.72753906 C43.34872516 23.9761143 -28.55339524 16.72118508 -89 44 Z " fill="#FBFBFB" transform="translate(262,34)"/>
<path d="M0 0 C1.70209074 0.00138269 1.70209074 0.00138269 3.43856716 0.00279331 C5.38429874 0.00073132 5.38429874 0.00073132 7.36933804 -0.00137234 C8.820266 0.00216728 10.27119373 0.0058021 11.72212124 0.00952244 C13.23949081 0.0098043 14.75686051 0.0096466 16.27423 0.00907993 C20.40628225 0.00879192 24.53830573 0.01468925 28.67035127 0.02165389 C32.98386602 0.02788681 37.29738136 0.02849118 41.61089993 0.0296793 C49.78487827 0.0327928 57.95884331 0.04100644 66.13281578 0.05102879 C75.43616679 0.06218935 84.73951842 0.06770023 94.04287446 0.07272422 C113.18588289 0.08318904 132.32887893 0.10078884 151.4718771 0.12304783 C150.35547699 1.8802366 149.23870615 3.63718983 148.12177944 5.39404392 C147.49991756 6.37247257 146.87805569 7.35090122 146.23734951 8.35897923 C144.223366 11.51212314 142.17413454 14.63626691 140.0968771 17.74804783 C139.42914272 18.75093845 138.76140835 19.75382908 138.0734396 20.78711033 C136.4718771 23.12304783 136.4718771 23.12304783 135.4718771 24.12304783 C132.58935065 24.28328345 129.72809183 24.38258811 126.84297085 24.43945408 C125.97874004 24.46023518 125.11450924 24.48101627 124.22408962 24.5024271 C121.45260265 24.56801896 118.68101788 24.626852 115.9093771 24.68554783 C114.03501787 24.72872391 112.16066867 24.77233789 110.28633022 24.8164072 C105.68161373 24.9237101 101.07679852 25.02494998 96.4718771 25.12304783 C97.09002285 26.14168919 97.09002285 26.14168919 97.72065639 27.18090916 C98.26117641 28.07576023 98.80169643 28.97061131 99.35859585 29.89257908 C99.89444302 30.77792332 100.43029018 31.66326756 100.98237514 32.57544041 C104.25879142 38.17934203 105.52544131 42.49799732 106.4718771 49.12304783 C120.9918771 49.12304783 135.5118771 49.12304783 150.4718771 49.12304783 C149.8118771 50.77304783 149.1518771 52.42304783 148.4718771 54.12304783 C148.19053921 54.85563816 147.90920132 55.58822849 147.61933804 56.34301853 C145.07363855 62.49285674 142.1561497 68.38868838 136.4718771 72.12304783 C126.75714345 74.42582959 116.29233158 73.21732704 106.4718771 72.12304783 C106.44174526 72.75138523 106.41161343 73.37972263 106.3805685 74.02710056 C105.94995187 80.1555949 104.74734073 84.79154927 101.8468771 90.18554783 C101.486423 90.87527683 101.12596889 91.56500584 100.75459194 92.27563572 C90.24419369 111.89889575 72.46583804 123.37431605 51.50849819 129.71728611 C43.52852349 132.03490878 35.85067768 133.84813634 27.4718771 133.12304783 C33.36577987 140.71295119 39.34163061 148.22229702 45.4718771 155.62304783 C50.18494564 161.31446898 54.81640729 167.05629453 59.35859585 172.88476658 C62.84041687 177.34394087 66.39435782 181.74039014 69.9718771 186.12304783 C74.47954924 191.64638439 78.92030477 197.2148938 83.3078146 202.83398533 C87.34754343 207.99456378 91.48331759 213.07401186 95.62715054 218.151124 C99.66556182 223.10784743 103.63217558 228.11615401 107.56489468 233.15698338 C111.2566195 237.87924344 115.05171649 242.50691821 118.88984585 247.11132908 C120.4718771 249.12304783 120.4718771 249.12304783 120.4718771 250.12304783 C114.92201297 250.34664773 109.37480372 250.50934467 103.82148647 250.61743259 C101.93560497 250.6625115 100.05003489 250.72379754 98.16523647 250.80200291 C82.55618682 251.43312991 82.55618682 251.43312991 77.58784389 248.31030369 C75.53774061 246.02358502 74.00633315 243.77704431 72.4718771 241.12304783 C71.58061819 239.98173352 70.67209298 238.85354092 69.74140835 237.74414158 C68.91978946 236.68496195 68.10081525 235.623726 67.2843771 234.56054783 C63.24521137 229.35997892 59.13764436 224.2227443 54.9718771 219.12304783 C50.46399617 213.59988437 46.02344598 208.03119745 41.6359396 202.41211033 C38.13411463 197.93868074 34.56376545 193.52437581 30.9718771 189.12304783 C26.46493392 183.60045548 22.02403254 178.03336011 17.63813686 172.41430759 C14.66212274 168.61153318 11.6401464 164.85009487 8.58198452 161.11303806 C7.46919936 159.74751699 6.36382958 158.37591852 5.26606655 156.99829197 C2.76613047 153.86782272 0.26470647 150.85789515 -2.5749979 148.02929783 C-9.35834238 140.94434198 -10.30246669 135.4752244 -10.1531229 125.81054783 C-10.02469003 122.23945401 -9.82475781 118.68403577 -9.5281229 115.12304783 C-8.53707554 115.11893894 -7.54602818 115.11483006 -6.52494907 115.11059666 C26.44243699 115.43304737 26.44243699 115.43304737 56.4718771 103.12304783 C57.5443771 102.40117283 58.6168771 101.67929783 59.7218771 100.93554783 C68.1149493 92.35172399 70.2774276 84.10223344 73.4718771 72.12304783 C43.4418771 72.12304783 13.4118771 72.12304783 -17.5281229 72.12304783 C-16.8681229 70.47304783 -16.2081229 68.82304783 -15.5281229 67.12304783 C-15.25216785 66.36638325 -14.97621281 65.60971867 -14.69189548 64.83012486 C-12.03705099 58.08126754 -8.71316623 52.15307487 -2.5281229 48.12304783 C8.48955111 45.06584533 20.44322253 46.24284891 31.7409811 46.81842136 C35.99649046 47.01439272 40.25415264 47.09988936 44.51289272 47.19531345 C52.83847353 47.39785343 61.15354713 47.72109811 69.4718771 48.12304783 C68.53825572 46.68692513 67.59980985 45.25393816 66.6593771 43.82226658 C66.13730679 43.02393406 65.61523647 42.22560154 65.07734585 41.40307713 C59.18782482 33.03899001 49.55605591 28.6633623 39.74336147 26.52978611 C27.95562322 24.55023432 16.01704682 24.67059552 4.0968771 24.49804783 C1.89634224 24.4597833 -0.30417899 24.42072694 -2.5046854 24.38086033 C-7.84570861 24.28579764 -13.1868167 24.20049441 -18.5281229 24.12304783 C-14.78408358 18.21566782 -11.03628716 12.31511997 -7.1531229 6.49804783 C-6.48538853 5.4951572 -5.81765415 4.49226658 -5.1296854 3.45898533 C-2.8533573 0.13887751 -2.8533573 0.13887751 0 0 Z " fill="#030303" transform="translate(183.5281229019165,124.87695217132568)"/>
<path d="M0 0 C4.93030322 4.35597138 9.79039131 8.77305918 14.58203125 13.28125 C15.29101562 13.93609375 16 14.5909375 16.73046875 15.265625 C41.95128294 39.3540761 59.29831088 73.74228461 67.58203125 107.28125 C67.85660156 108.39242187 68.13117188 109.50359375 68.4140625 110.6484375 C75.46370275 141.27790894 74.49940485 173.92173266 66.58203125 204.28125 C66.37594238 205.07644043 66.16985352 205.87163086 65.95751953 206.69091797 C59.40189978 231.40810506 47.96913353 253.92408858 32.58203125 274.28125 C31.59783203 275.58642578 31.59783203 275.58642578 30.59375 276.91796875 C0.89565249 315.10123698 -41.91540218 341.35273372 -89.41796875 350.28125 C-90.20606934 350.44351074 -90.99416992 350.60577148 -91.80615234 350.77294922 C-140.28638173 360.69843882 -193.20466332 348.86508596 -234.41796875 322.28125 C-239.95240892 318.53419712 -245.2245312 314.48431766 -250.41796875 310.28125 C-250.99482422 309.8186377 -251.57167969 309.35602539 -252.16601562 308.87939453 C-264.62317508 298.83019115 -275.540034 287.85079766 -285.11523438 275.01513672 C-286.34427133 273.37933829 -287.60672603 271.76880245 -288.87109375 270.16015625 C-306.13434894 247.73532698 -317.15880463 219.93263037 -322.41796875 192.28125 C-322.66353516 191.0123291 -322.66353516 191.0123291 -322.9140625 189.71777344 C-325.31473475 176.66783813 -325.72182666 163.63702119 -325.79296875 150.40625 C-325.80091461 149.63273193 -325.80886047 148.85921387 -325.81704712 148.06225586 C-325.90589153 136.81559854 -324.73682398 126.2818992 -322.41796875 115.28125 C-322.21929199 114.32395996 -322.02061523 113.36666992 -321.81591797 112.38037109 C-313.69869209 75.2089224 -295.6415735 42.70359501 -269.41796875 15.28125 C-268.54398438 14.35441406 -267.67 13.42757812 -266.76953125 12.47265625 C-244.54563694 -10.50072423 -215.7309504 -27.01704567 -185.41796875 -36.71875 C-184.6811084 -36.95819336 -183.94424805 -37.19763672 -183.18505859 -37.44433594 C-121.89091557 -56.84854104 -48.77321633 -41.35609127 0 0 Z M-203.41796875 -17.71875 C-204.04010254 -17.4398291 -204.66223633 -17.1609082 -205.30322266 -16.87353516 C-225.73265528 -7.58370286 -243.1728994 5.95996407 -259.41796875 21.28125 C-260.15144531 21.9721875 -260.88492188 22.663125 -261.640625 23.375 C-294.03593803 54.80425002 -313.46956552 101.50251192 -314.671875 146.38671875 C-314.83897029 158.49507318 -314.65411705 170.35512572 -312.41796875 182.28125 C-312.18496562 183.63520518 -311.95325436 184.98938314 -311.72265625 186.34375 C-302.93375607 236.36488379 -275.08368217 279.57191305 -233.79296875 308.875 C-193.08381912 337.14915772 -142.5685331 348.63397683 -93.67724609 339.97973633 C-86.09913242 338.52269502 -78.72307188 336.79680433 -71.41796875 334.28125 C-70.72106934 334.04567383 -70.02416992 333.81009766 -69.30615234 333.56738281 C-39.94855556 323.55754126 -15.9774773 308.52295694 6.58203125 287.28125 C7.64744141 286.29705078 7.64744141 286.29705078 8.734375 285.29296875 C41.83326052 253.68319465 60.31160924 205.93698213 61.94140625 160.81640625 C62.93611864 107.13721086 43.11584089 59.15408542 6.11181641 20.52783203 C-0.52636945 13.75710336 -7.76316426 7.86235881 -15.41796875 2.28125 C-15.99353516 1.86133789 -16.56910156 1.44142578 -17.16210938 1.00878906 C-71.06924359 -37.7426357 -142.97136399 -44.99756492 -203.41796875 -17.71875 Z " fill="#060606" transform="translate(376.41796875,95.71875)"/>
</svg>
